<svg width="565" height="299" viewBox="0 0 565 299" fill="none" xmlns="http://www.w3.org/2000/svg">
<path d="M64.1957 170.577H120.1V129.674L64.1957 170.577ZM120.1 82.8058H184.042V170.577H208.036V218.54H184.042V246.417H120.1V218.54H0.375V170.577L120.1 82.8058Z" fill="#2f2f2f"/>
<path d="M420.785 163.235H476.689V122.332L420.785 163.235ZM476.689 75.4642H540.631V163.235H564.625V211.199H540.631V239.076H476.689V211.199H356.964V163.235L476.689 75.4642Z" fill="#2f2f2f"/>
<path d="M331.63 86.9935L296.109 31.6264C276.263 0.72733 234.964 -8.3163 204.065 11.5294C174.774 30.3201 165.127 68.3536 181.054 98.5995L209.692 80.1103C203.764 65.741 208.788 48.6586 222.303 39.9666C237.526 30.1694 257.875 34.6409 267.672 49.8644L303.193 105.232C306.258 110.055 307.966 115.38 308.318 120.706C309.072 132.262 303.746 143.918 293.296 150.6C292.944 150.852 292.592 151.053 292.24 151.254C285.106 155.474 276.967 156.68 269.33 155.172C260.839 153.514 253.001 148.54 247.927 140.703L242.802 132.714L236.22 122.465L206.828 139.246L219.439 158.941C220.394 160.448 221.399 161.855 222.454 163.261C230.543 173.913 241.295 181.499 253.202 185.72C271.943 192.352 293.497 190.593 311.534 179.038C314.749 176.978 317.764 174.666 320.477 172.154C329.42 164.015 335.7 153.816 339.117 142.712C344.794 124.575 342.684 104.176 331.63 86.9935Z" fill="#2f2f2f" stroke="#2f2f2f" stroke-miterlimit="10"/>
<path d="M379.613 185.318L339.168 142.763L334.294 137.638C326.858 129.8 317.915 124.123 308.319 120.756C286.514 113.019 261.392 116.938 242.803 132.764L247.927 140.753C252.952 148.591 260.789 153.565 269.331 155.223C276.314 151.103 284.504 149.796 292.241 151.304C298.722 152.56 304.902 155.775 309.826 160.9L320.528 172.205L355.094 208.63C367.555 221.744 367.002 242.594 353.889 255.054C340.775 267.514 319.925 266.962 307.465 253.848L262.196 206.168C256.72 200.391 253.756 193.156 253.253 185.82C241.346 181.6 230.594 174.013 222.505 163.362C215.421 185.77 220.395 211.243 237.678 229.431L282.946 277.111C308.218 303.739 350.472 304.845 377.151 279.573C403.779 254.2 404.885 211.946 379.613 185.318Z" fill="#2f2f2f" stroke="#2f2f2f" stroke-width="0.75" stroke-miterlimit="10"/>
</svg>
