<svg width="15" height="20" viewBox="0 0 15 20" fill="none" xmlns="http://www.w3.org/2000/svg">
<path fill-rule="evenodd" clip-rule="evenodd" d="M7.50201 1.4987C5.90403 1.49264 4.27721 1.83097 2.11869 2.57255L1.63131 1.15394C3.87394 0.383459 5.67802 -0.00822914 7.5077 -0.00128615C9.3352 0.00564861 11.1334 0.410193 13.3618 1.1516L12.8882 2.57489C10.7284 1.85626 9.10217 1.50478 7.50201 1.4987ZM7.52459 4.27674C6.50421 4.26737 5.445 4.48638 4.00515 5.00729L3.49485 3.59675C5.02818 3.04204 6.27435 2.7652 7.53836 2.7768C8.79821 2.78837 10.0183 3.0863 11.4935 3.59264L11.0065 5.0114C9.59246 4.52604 8.54913 4.28615 7.52459 4.27674ZM4.272 18.4001C5.344 18.9921 6.528 19.2881 7.824 19.2881C9.12 19.2881 10.296 18.9921 11.352 18.4001C12.408 17.8081 13.248 17.0001 13.872 15.9761C14.512 14.9361 14.832 13.7601 14.832 12.4481C14.832 11.1201 14.512 9.94409 13.872 8.92009C13.248 7.89609 12.408 7.08809 11.352 6.49609C10.296 5.90409 9.12 5.60809 7.824 5.60809C6.528 5.60809 5.344 5.90409 4.272 6.49609C3.216 7.08809 2.368 7.89609 1.728 8.92009C1.104 9.94409 0.792 11.1201 0.792 12.4481C0.792 13.7601 1.104 14.9361 1.728 15.9761C2.368 17.0001 3.216 17.8081 4.272 18.4001ZM9.528 15.5921C9.048 15.8961 8.48 16.0481 7.824 16.0481C7.168 16.0481 6.592 15.8961 6.096 15.5921C5.6 15.2881 5.208 14.8641 4.92 14.3201C4.648 13.7761 4.512 13.1521 4.512 12.4481C4.512 11.7441 4.648 11.1281 4.92 10.6001C5.208 10.0561 5.6 9.63209 6.096 9.32809C6.592 9.00809 7.168 8.84809 7.824 8.84809C8.48 8.84809 9.048 9.00809 9.528 9.32809C10.024 9.63209 10.408 10.0561 10.68 10.6001C10.968 11.1281 11.112 11.7441 11.112 12.4481C11.112 13.1521 10.968 13.7761 10.68 14.3201C10.408 14.8641 10.024 15.2881 9.528 15.5921Z" fill="url(#paint0_linear_629_16)"/>
<defs>
<linearGradient id="paint0_linear_629_16" x1="-3.24386e-08" y1="6.5" x2="19" y2="6.5" gradientUnits="userSpaceOnUse">
<stop stop-color="#3B82F6"/>
<stop offset="0.25" stop-color="#2B5FB4"/>
<stop offset="0.5" stop-color="#306BCB"/>
<stop offset="0.75" stop-color="#3B82F6"/>
<stop offset="1" stop-color="#2C59A2"/>
</linearGradient>
</defs>
</svg>
