<svg width="177" height="45" viewBox="0 0 177 45" fill="none" xmlns="http://www.w3.org/2000/svg">
<path d="M10.176 33.384C8.32 33.384 6.70933 32.9787 5.344 32.168C3.97867 31.336 2.92267 30.2267 2.176 28.84C1.42933 27.4533 1.056 25.9173 1.056 24.232C1.056 22.4827 1.44 20.9253 2.208 19.56C2.99733 18.1947 4.05333 17.1173 5.376 16.328C6.69867 15.5387 8.192 15.144 9.856 15.144C11.2427 15.144 12.4693 15.368 13.536 15.816C14.6027 16.2427 15.4987 16.8507 16.224 17.64C16.9707 18.4293 17.536 19.3467 17.92 20.392C18.304 21.416 18.496 22.536 18.496 23.752C18.496 24.0933 18.4747 24.4347 18.432 24.776C18.4107 25.096 18.3573 25.3733 18.272 25.608H5.184V22.088H15.552L13.28 23.752C13.4933 22.8347 13.4827 22.024 13.248 21.32C13.0133 20.5947 12.5973 20.0293 12 19.624C11.424 19.1973 10.7093 18.984 9.856 18.984C9.024 18.984 8.30933 19.1867 7.712 19.592C7.11467 19.9973 6.66667 20.5947 6.368 21.384C6.06933 22.1733 5.952 23.1333 6.016 24.264C5.93067 25.2453 6.048 26.1093 6.368 26.856C6.688 27.6027 7.17867 28.1893 7.84 28.616C8.50133 29.0213 9.30133 29.224 10.24 29.224C11.0933 29.224 11.8187 29.0533 12.416 28.712C13.0347 28.3707 13.5147 27.9013 13.856 27.304L17.696 29.128C17.3547 29.9813 16.8107 30.728 16.064 31.368C15.3387 32.008 14.4747 32.5093 13.472 32.872C12.4693 33.2133 11.3707 33.384 10.176 33.384ZM29.8985 33.384C28.1492 33.384 26.5705 32.9893 25.1625 32.2C23.7758 31.3893 22.6665 30.2907 21.8345 28.904C21.0238 27.5173 20.6185 25.96 20.6185 24.232C20.6185 22.504 21.0238 20.9573 21.8345 19.592C22.6452 18.2053 23.7545 17.1173 25.1625 16.328C26.5705 15.5387 28.1492 15.144 29.8985 15.144C31.1998 15.144 32.4052 15.368 33.5145 15.816C34.6238 16.264 35.5732 16.8933 36.3625 17.704C37.1518 18.4933 37.7172 19.432 38.0585 20.52L33.8985 22.312C33.5998 21.4373 33.0878 20.744 32.3625 20.232C31.6585 19.72 30.8372 19.464 29.8985 19.464C29.0665 19.464 28.3198 19.6667 27.6585 20.072C27.0185 20.4773 26.5065 21.0427 26.1225 21.768C25.7598 22.4933 25.5785 23.3253 25.5785 24.264C25.5785 25.2027 25.7598 26.0347 26.1225 26.76C26.5065 27.4853 27.0185 28.0507 27.6585 28.456C28.3198 28.8613 29.0665 29.064 29.8985 29.064C30.8585 29.064 31.6905 28.808 32.3945 28.296C33.0985 27.784 33.5998 27.0907 33.8985 26.216L38.0585 28.04C37.7385 29.064 37.1838 29.9813 36.3945 30.792C35.6052 31.6027 34.6558 32.2427 33.5465 32.712C32.4372 33.16 31.2212 33.384 29.8985 33.384ZM40.885 33V8.776H45.685V18.984L45.109 18.216C45.5143 17.1707 46.165 16.4027 47.061 15.912C47.9783 15.4 49.045 15.144 50.261 15.144C51.5837 15.144 52.7357 15.4213 53.717 15.976C54.7197 16.5307 55.4983 17.3093 56.053 18.312C56.6077 19.2933 56.885 20.4453 56.885 21.768V33H52.085V22.792C52.085 22.1093 51.9463 21.5227 51.669 21.032C51.413 20.5413 51.0397 20.1573 50.549 19.88C50.0797 19.6027 49.525 19.464 48.885 19.464C48.2663 19.464 47.7117 19.6027 47.221 19.88C46.7303 20.1573 46.3463 20.5413 46.069 21.032C45.813 21.5227 45.685 22.1093 45.685 22.792V33H40.885ZM68.7133 33.384C66.9853 33.384 65.4066 32.9893 63.9773 32.2C62.5693 31.4107 61.4386 30.3333 60.5853 28.968C59.7533 27.5813 59.3372 26.0133 59.3372 24.264C59.3372 22.4933 59.7533 20.9253 60.5853 19.56C61.4386 18.1947 62.5693 17.1173 63.9773 16.328C65.4066 15.5387 66.9853 15.144 68.7133 15.144C70.4413 15.144 72.0093 15.5387 73.4173 16.328C74.8253 17.1173 75.9453 18.1947 76.7773 19.56C77.6306 20.9253 78.0573 22.4933 78.0573 24.264C78.0573 26.0133 77.6306 27.5813 76.7773 28.968C75.9453 30.3333 74.8253 31.4107 73.4173 32.2C72.0093 32.9893 70.4413 33.384 68.7133 33.384ZM68.7133 29.064C69.5879 29.064 70.3453 28.8613 70.9853 28.456C71.6466 28.0507 72.1586 27.4853 72.5213 26.76C72.9053 26.0347 73.0973 25.2027 73.0973 24.264C73.0973 23.3253 72.9053 22.504 72.5213 21.8C72.1586 21.0747 71.6466 20.5093 70.9853 20.104C70.3453 19.6773 69.5879 19.464 68.7133 19.464C67.8386 19.464 67.0706 19.6773 66.4093 20.104C65.7479 20.5093 65.2253 21.0747 64.8413 21.8C64.4786 22.504 64.2973 23.3253 64.2973 24.264C64.2973 25.2027 64.4786 26.0347 64.8413 26.76C65.2253 27.4853 65.7479 28.0507 66.4093 28.456C67.0706 28.8613 67.8386 29.064 68.7133 29.064ZM88.9885 33.192C86.8765 33.192 85.2338 32.6267 84.0605 31.496C82.9085 30.344 82.3325 28.744 82.3325 26.696V19.688H79.3885V15.528H79.5485C80.4445 15.528 81.1272 15.304 81.5965 14.856C82.0872 14.408 82.3325 13.736 82.3325 12.84V11.56H87.1325V15.528H91.2285V19.688H87.1325V26.376C87.1325 26.9733 87.2392 27.4747 87.4525 27.88C87.6658 28.264 87.9965 28.552 88.4445 28.744C88.8925 28.936 89.4472 29.032 90.1085 29.032C90.2578 29.032 90.4285 29.0213 90.6205 29C90.8125 28.9787 91.0152 28.9573 91.2285 28.936V33C90.9085 33.0427 90.5458 33.0853 90.1405 33.128C89.7352 33.1707 89.3512 33.192 88.9885 33.192ZM94.0413 33V8.776H98.8413V18.984L98.2653 18.216C98.6706 17.1707 99.3213 16.4027 100.217 15.912C101.135 15.4 102.201 15.144 103.417 15.144C104.74 15.144 105.892 15.4213 106.873 15.976C107.876 16.5307 108.655 17.3093 109.209 18.312C109.764 19.2933 110.041 20.4453 110.041 21.768V33H105.241V22.792C105.241 22.1093 105.103 21.5227 104.825 21.032C104.569 20.5413 104.196 20.1573 103.705 19.88C103.236 19.6027 102.681 19.464 102.041 19.464C101.423 19.464 100.868 19.6027 100.377 19.88C99.8866 20.1573 99.5026 20.5413 99.2253 21.032C98.9693 21.5227 98.8413 22.1093 98.8413 22.792V33H94.0413ZM113.198 33V15.528H117.678V19.72L117.358 19.112C117.742 17.64 118.371 16.648 119.246 16.136C120.142 15.6027 121.198 15.336 122.414 15.336H123.438V19.496H121.934C120.76 19.496 119.811 19.8587 119.086 20.584C118.36 21.288 117.998 22.2907 117.998 23.592V33H113.198ZM125.541 33V15.528H130.341V33H125.541ZM125.541 13.96V9.16H130.341V13.96H125.541ZM139.326 33L132.446 15.528H137.63L142.398 28.744H140.414L145.182 15.528H150.366L143.486 33H139.326ZM160.582 33.384C158.726 33.384 157.116 32.9787 155.75 32.168C154.385 31.336 153.329 30.2267 152.582 28.84C151.836 27.4533 151.462 25.9173 151.462 24.232C151.462 22.4827 151.846 20.9253 152.614 19.56C153.404 18.1947 154.46 17.1173 155.782 16.328C157.105 15.5387 158.598 15.144 160.262 15.144C161.649 15.144 162.876 15.368 163.942 15.816C165.009 16.2427 165.905 16.8507 166.63 17.64C167.377 18.4293 167.942 19.3467 168.326 20.392C168.71 21.416 168.902 22.536 168.902 23.752C168.902 24.0933 168.881 24.4347 168.838 24.776C168.817 25.096 168.764 25.3733 168.678 25.608H155.59V22.088H165.958L163.686 23.752C163.9 22.8347 163.889 22.024 163.654 21.32C163.42 20.5947 163.004 20.0293 162.406 19.624C161.83 19.1973 161.116 18.984 160.262 18.984C159.43 18.984 158.716 19.1867 158.118 19.592C157.521 19.9973 157.073 20.5947 156.774 21.384C156.476 22.1733 156.358 23.1333 156.422 24.264C156.337 25.2453 156.454 26.1093 156.774 26.856C157.094 27.6027 157.585 28.1893 158.246 28.616C158.908 29.0213 159.708 29.224 160.646 29.224C161.5 29.224 162.225 29.0533 162.822 28.712C163.441 28.3707 163.921 27.9013 164.262 27.304L168.102 29.128C167.761 29.9813 167.217 30.728 166.47 31.368C165.745 32.008 164.881 32.5093 163.878 32.872C162.876 33.2133 161.777 33.384 160.582 33.384Z" fill="url(#paint0_linear_605_29)"/>
<path d="M64.75 13.3019C67.7232 12.2263 69.3607 12.3102 72.25 13.3019" stroke="#3570D0" stroke-width="1.5"/>
<path d="M62.875 10.8632C67.2761 9.3511 69.7368 9.40312 74.125 10.8632" stroke="#3570D0" stroke-width="1.5"/>
<defs>
<linearGradient id="paint0_linear_605_29" x1="0" y1="22.5" x2="177" y2="22.5" gradientUnits="userSpaceOnUse">
<stop stop-color="#3B82F6"/>
<stop offset="0.25" stop-color="#2B5FB4"/>
<stop offset="0.5" stop-color="#306BCB"/>
<stop offset="0.75" stop-color="#3B82F6"/>
<stop offset="1" stop-color="#2C59A2"/>
</linearGradient>
</defs>
</svg>
