<svg width="116" height="24" viewBox="0 0 116 24" fill="none" xmlns="http://www.w3.org/2000/svg">
<path d="M7.776 23L0.512 0.599998H7.04L13.152 19.992H9.856L16.288 0.599998H22.112L28.192 19.992H25.024L31.328 0.599998H37.376L30.112 23H23.328L18.144 6.52H19.968L14.56 23H7.776ZM47.165 23.288C45.117 23.288 43.325 22.904 41.789 22.136C40.2743 21.3467 39.0903 20.28 38.237 18.936C37.405 17.5707 36.989 16.024 36.989 14.296C36.989 12.568 37.3943 11.032 38.205 9.688C39.037 8.32267 40.1783 7.26667 41.629 6.52C43.0797 5.752 44.7117 5.368 46.525 5.368C48.2317 5.368 49.789 5.72 51.197 6.424C52.605 7.10667 53.725 8.12 54.557 9.464C55.389 10.808 55.805 12.44 55.805 14.36C55.805 14.5733 55.7943 14.8187 55.773 15.096C55.7517 15.3733 55.7303 15.6293 55.709 15.864H41.981V12.664H52.477L50.173 13.56C50.1943 12.7707 50.045 12.088 49.725 11.512C49.4263 10.936 48.9997 10.488 48.445 10.168C47.9117 9.848 47.2823 9.688 46.557 9.688C45.8317 9.688 45.1917 9.848 44.637 10.168C44.1037 10.488 43.6877 10.9467 43.389 11.544C43.0903 12.12 42.941 12.8027 42.941 13.592V14.52C42.941 15.3733 43.1117 16.1093 43.453 16.728C43.8157 17.3467 44.3277 17.8267 44.989 18.168C45.6503 18.488 46.4397 18.648 47.357 18.648C48.2103 18.648 48.9357 18.5307 49.533 18.296C50.1517 18.04 50.7597 17.656 51.357 17.144L54.557 20.472C53.725 21.3893 52.701 22.0933 51.485 22.584C50.269 23.0533 48.829 23.288 47.165 23.288ZM70.0963 23.448C68.3256 23.448 66.6829 23.1707 65.1683 22.616C63.6536 22.04 62.3416 21.2293 61.2323 20.184C60.1443 19.1387 59.2909 17.912 58.6723 16.504C58.0536 15.0747 57.7443 13.5067 57.7443 11.8C57.7443 10.0933 58.0536 8.536 58.6723 7.128C59.2909 5.69867 60.1549 4.46133 61.2643 3.416C62.3736 2.37067 63.6856 1.57067 65.2003 1.016C66.7363 0.439999 68.4109 0.151999 70.2243 0.151999C72.3363 0.151999 74.2243 0.503998 75.8883 1.208C77.5523 1.912 78.9283 2.92533 80.0163 4.248L75.9843 7.896C75.2163 7.064 74.3843 6.44533 73.4883 6.04C72.6136 5.61333 71.6323 5.4 70.5443 5.4C69.5843 5.4 68.7096 5.54933 67.9203 5.848C67.1309 6.14667 66.4589 6.584 65.9043 7.16C65.3496 7.71467 64.9123 8.38667 64.5923 9.176C64.2936 9.944 64.1443 10.8187 64.1443 11.8C64.1443 12.7387 64.2936 13.6027 64.5923 14.392C64.9123 15.1813 65.3496 15.864 65.9043 16.44C66.4589 16.9947 67.1203 17.432 67.8883 17.752C68.6776 18.0507 69.5416 18.2 70.4803 18.2C71.4189 18.2 72.3363 18.0507 73.2323 17.752C74.1283 17.432 75.0349 16.8987 75.9523 16.152L79.5043 20.6C78.2243 21.5173 76.7416 22.2213 75.0563 22.712C73.3709 23.2027 71.7176 23.448 70.0963 23.448ZM73.9043 19.768V11.32H79.5043V20.6L73.9043 19.768ZM83.2333 23V5.656H89.0253V10.712L88.1613 9.272C88.6733 7.97067 89.5053 7 90.6573 6.36C91.8093 5.69867 93.2066 5.368 94.8493 5.368V10.84C94.5719 10.7973 94.3266 10.776 94.1133 10.776C93.9213 10.7547 93.7079 10.744 93.4733 10.744C92.2359 10.744 91.2333 11.0853 90.4653 11.768C89.6973 12.4293 89.3133 13.5173 89.3133 15.032V23H83.2333ZM105.906 23.288C104.007 23.288 102.322 22.904 100.85 22.136C99.378 21.368 98.2153 20.312 97.362 18.968C96.53 17.6027 96.114 16.0453 96.114 14.296C96.114 12.5467 96.53 11 97.362 9.656C98.2153 8.312 99.378 7.26667 100.85 6.52C102.322 5.752 104.007 5.368 105.906 5.368C107.805 5.368 109.49 5.752 110.962 6.52C112.455 7.26667 113.618 8.312 114.45 9.656C115.282 11 115.698 12.5467 115.698 14.296C115.698 16.0453 115.282 17.6027 114.45 18.968C113.618 20.312 112.455 21.368 110.962 22.136C109.49 22.904 107.805 23.288 105.906 23.288ZM105.906 18.456C106.61 18.456 107.229 18.296 107.762 17.976C108.317 17.656 108.754 17.1867 109.074 16.568C109.394 15.928 109.554 15.1707 109.554 14.296C109.554 13.4213 109.394 12.6853 109.074 12.088C108.754 11.4693 108.317 11 107.762 10.68C107.229 10.36 106.61 10.2 105.906 10.2C105.223 10.2 104.605 10.36 104.05 10.68C103.517 11 103.079 11.4693 102.738 12.088C102.418 12.6853 102.258 13.4213 102.258 14.296C102.258 15.1707 102.418 15.928 102.738 16.568C103.079 17.1867 103.517 17.656 104.05 17.976C104.605 18.296 105.223 18.456 105.906 18.456Z" fill="#1DB954"/>
</svg>
