<svg width="187" height="27" viewBox="0 0 187 27" fill="none" xmlns="http://www.w3.org/2000/svg">
<path d="M6.064 12.272H16.464V17.008H6.064V12.272ZM6.512 21.104H18.224V26H0.24V3.6H17.808V8.496H6.512V21.104ZM30.2535 26.288C28.3335 26.288 26.6162 25.904 25.1015 25.136C23.6082 24.368 22.4348 23.312 21.5815 21.968C20.7282 20.6027 20.3015 19.0453 20.3015 17.296C20.3015 15.5467 20.7282 14 21.5815 12.656C22.4348 11.312 23.6082 10.2667 25.1015 9.52C26.6162 8.752 28.3335 8.368 30.2535 8.368C32.2162 8.368 33.9122 8.784 35.3415 9.616C36.7708 10.448 37.7842 11.6213 38.3815 13.136L33.6775 15.536C33.2722 14.7253 32.7708 14.1387 32.1735 13.776C31.5762 13.392 30.9255 13.2 30.2215 13.2C29.5175 13.2 28.8775 13.36 28.3015 13.68C27.7255 14 27.2668 14.4693 26.9255 15.088C26.6055 15.6853 26.4455 16.4213 26.4455 17.296C26.4455 18.192 26.6055 18.9493 26.9255 19.568C27.2668 20.1867 27.7255 20.656 28.3015 20.976C28.8775 21.296 29.5175 21.456 30.2215 21.456C30.9255 21.456 31.5762 21.2747 32.1735 20.912C32.7708 20.528 33.2722 19.9307 33.6775 19.12L38.3815 21.52C37.7842 23.0347 36.7708 24.208 35.3415 25.04C33.9122 25.872 32.2162 26.288 30.2535 26.288ZM51.9043 8.368C53.2483 8.368 54.4643 8.64533 55.5522 9.2C56.6403 9.73333 57.4936 10.5653 58.1123 11.696C58.7523 12.8267 59.0723 14.288 59.0723 16.08V26H52.9923V17.072C52.9923 15.8347 52.7363 14.9387 52.2243 14.384C51.7336 13.808 51.0403 13.52 50.1443 13.52C49.5043 13.52 48.9176 13.6693 48.3843 13.968C47.8509 14.2453 47.4349 14.6827 47.1363 15.28C46.8376 15.8773 46.6883 16.656 46.6883 17.616V26H40.6083V2.256H46.6883V13.584L45.2803 12.144C45.9416 10.8853 46.8483 9.94667 48.0003 9.328C49.1523 8.688 50.4536 8.368 51.9043 8.368ZM71.8123 26.288C69.9136 26.288 68.2283 25.904 66.7563 25.136C65.2843 24.368 64.1216 23.312 63.2682 21.968C62.4363 20.6027 62.0203 19.0453 62.0203 17.296C62.0203 15.5467 62.4363 14 63.2682 12.656C64.1216 11.312 65.2843 10.2667 66.7563 9.52C68.2283 8.752 69.9136 8.368 71.8123 8.368C73.7109 8.368 75.3963 8.752 76.8683 9.52C78.3616 10.2667 79.5243 11.312 80.3563 12.656C81.1883 14 81.6043 15.5467 81.6043 17.296C81.6043 19.0453 81.1883 20.6027 80.3563 21.968C79.5243 23.312 78.3616 24.368 76.8683 25.136C75.3963 25.904 73.7109 26.288 71.8123 26.288ZM71.8123 21.456C72.5163 21.456 73.1349 21.296 73.6683 20.976C74.2229 20.656 74.6603 20.1867 74.9803 19.568C75.3003 18.928 75.4603 18.1707 75.4603 17.296C75.4603 16.4213 75.3003 15.6853 74.9803 15.088C74.6603 14.4693 74.2229 14 73.6683 13.68C73.1349 13.36 72.5163 13.2 71.8123 13.2C71.1296 13.2 70.5109 13.36 69.9563 13.68C69.4229 14 68.9856 14.4693 68.6443 15.088C68.3243 15.6853 68.1643 16.4213 68.1643 17.296C68.1643 18.1707 68.3243 18.928 68.6443 19.568C68.9856 20.1867 69.4229 20.656 69.9563 20.976C70.5109 21.296 71.1296 21.456 71.8123 21.456ZM87.6955 26V8.624H80.8155V3.6H100.88V8.624H94.0315V26H87.6955ZM114.248 8.368C115.592 8.368 116.808 8.64533 117.896 9.2C118.984 9.73333 119.837 10.5653 120.456 11.696C121.096 12.8267 121.416 14.288 121.416 16.08V26H115.336V17.072C115.336 15.8347 115.08 14.9387 114.568 14.384C114.077 13.808 113.384 13.52 112.488 13.52C111.848 13.52 111.261 13.6693 110.728 13.968C110.195 14.2453 109.779 14.6827 109.48 15.28C109.181 15.8773 109.032 16.656 109.032 17.616V26H102.952V2.256H109.032V13.584L107.624 12.144C108.285 10.8853 109.192 9.94667 110.344 9.328C111.496 8.688 112.797 8.368 114.248 8.368ZM125.233 26V8.656H131.025V13.712L130.161 12.272C130.673 10.9707 131.505 10 132.657 9.36C133.809 8.69867 135.207 8.368 136.849 8.368V13.84C136.572 13.7973 136.327 13.776 136.113 13.776C135.921 13.7547 135.708 13.744 135.473 13.744C134.236 13.744 133.233 14.0853 132.465 14.768C131.697 15.4293 131.313 16.5173 131.313 18.032V26H125.233ZM139.358 26V8.656H145.438V26H139.358ZM142.398 6.736C141.289 6.736 140.393 6.42666 139.71 5.808C139.028 5.18933 138.686 4.42133 138.686 3.504C138.686 2.58667 139.028 1.81867 139.71 1.2C140.393 0.581333 141.289 0.271999 142.398 0.271999C143.508 0.271999 144.404 0.570666 145.086 1.168C145.769 1.744 146.11 2.49067 146.11 3.408C146.11 4.368 145.769 5.168 145.086 5.808C144.425 6.42666 143.529 6.736 142.398 6.736ZM154.222 26L147.085 8.656H153.326L159.022 23.152H155.885L161.87 8.656H167.662L160.494 26H154.222ZM177.853 26.288C175.805 26.288 174.013 25.904 172.477 25.136C170.962 24.3467 169.778 23.28 168.924 21.936C168.093 20.5707 167.677 19.024 167.677 17.296C167.677 15.568 168.082 14.032 168.893 12.688C169.725 11.3227 170.866 10.2667 172.317 9.52C173.767 8.752 175.399 8.368 177.213 8.368C178.919 8.368 180.477 8.72 181.885 9.424C183.293 10.1067 184.413 11.12 185.245 12.464C186.077 13.808 186.493 15.44 186.493 17.36C186.493 17.5733 186.482 17.8187 186.461 18.096C186.439 18.3733 186.418 18.6293 186.397 18.864H172.669V15.664H183.165L180.861 16.56C180.882 15.7707 180.733 15.088 180.413 14.512C180.114 13.936 179.687 13.488 179.133 13.168C178.599 12.848 177.97 12.688 177.245 12.688C176.519 12.688 175.879 12.848 175.325 13.168C174.791 13.488 174.375 13.9467 174.077 14.544C173.778 15.12 173.629 15.8027 173.629 16.592V17.52C173.629 18.3733 173.799 19.1093 174.141 19.728C174.503 20.3467 175.015 20.8267 175.677 21.168C176.338 21.488 177.127 21.648 178.045 21.648C178.898 21.648 179.623 21.5307 180.221 21.296C180.839 21.04 181.447 20.656 182.045 20.144L185.245 23.472C184.413 24.3893 183.389 25.0933 182.173 25.584C180.957 26.0533 179.517 26.288 177.853 26.288Z" fill="#3B82F6"/>
</svg>
